Coordinates
version=1
nRows=14
nColumns=24
inDegrees=yes

Units are S.I. units (second, meters, Newtons, ...)
Angles are in degrees.

endheader
time	pelvis_tilt	pelvis_list	pelvis_rotation	pelvis_tx	pelvis_ty	pelvis_tz	hip_flexion_r	hip_adduction_r	hip_rotation_r	knee_angle_r	ankle_angle_r	subtalar_angle_r	mtp_angle_r	hip_flexion_l	hip_adduction_l	hip_rotation_l	knee_angle_l	ankle_angle_l	subtalar_angle_l	mtp_angle_l	lumbar_extension	lumbar_bending	lumbar_rotation
      1.31000000	     10.45136683	      1.41178870	      0.12466104	      0.04177385	      0.91911597	     -0.04044239	     19.11171445	     -1.34449087	     -6.85091952	    -41.72588788	     18.09076765	     -7.47627495	     35.53186326	    -21.90730019	      3.95759843	     -2.78348930	     -3.24303993	     18.75540363	      3.23171230	     24.32891081	    -27.52469292	     -4.67053430	     -8.42749731
      1.31500000	     10.44473490	      1.41884856	      0.39564578	      0.04909648	      0.91847208	     -0.04044641	     19.05026855	     -1.36702989	     -7.08355823	    -39.44798047	     18.10629293	     -7.14724626	     35.55924483	    -22.48042401	      3.81406601	     -2.95042221	     -3.09227047	     18.88981904	      3.90798039	     24.47063720	    -27.55088557	     -4.56067598	     -8.87402154
      1.32000000	     10.44316926	      1.42087495	      0.66543075	      0.05643141	      0.91780438	     -0.04041274	     18.92628120	     -1.37721716	     -7.32146436	    -37.08528565	     18.09501308	     -6.78273757	     35.63125455	    -23.04093503	      3.65662074	     -3.13203834	     -2.97561356	     18.99672588	      4.61277010	     24.62468415	    -27.58391820	     -4.44977993	     -9.27102238
      1.32500000	     10.42117525	      1.42173242	      0.95902316	      0.06381523	      0.91710466	     -0.04038520	     18.76197941	     -1.39043321	     -7.59625230	    -34.64646564	     18.04071972	     -6.36913968	     35.74283460	    -23.55944765	      3.48196265	     -3.29363096	     -2.89985318	     19.11173107	      5.32113271	     24.78714983	    -27.59207406	     -4.33161699	     -9.68336177
      1.33000000	     10.43054962	      1.40925934	      1.24056962	      0.07128944	      0.91643151	     -0.04031611	     18.49694937	     -1.38167674	     -7.88714978	    -32.12614014	     17.94546305	     -5.90764164	     35.95019992	    -24.11291144	      3.29098345	     -3.51205446	     -2.82847800	     19.17008574	      6.07006989	     24.98584478	    -27.62369240	     -4.20534525	    -10.05285730
      1.33500000	     10.41729287	      1.40844518	      1.57810670	      0.07878845	      0.91570294	     -0.04026954	     18.19917197	     -1.39563223	     -8.23807922	    -29.56037821	     17.80830676	     -5.39584611	     36.15276994	    -24.60630393	      3.08104210	     -3.65570724	     -2.82393087	     19.31673511	      6.78185418	     25.18050832	    -27.63553774	     -4.07363180	    -10.52706237
      1.34000000	     10.45268090	      1.39452075	      1.88919071	      0.08641409	      0.91502449	     -0.04017931	     17.78493803	     -1.38332038	     -8.60107065	    -26.93531615	     17.61820573	     -4.82779968	     36.45887402	    -25.16028934	      2.86187244	     -3.88073059	     -2.81592198	     19.37258582	      7.53351890	     25.41500095	    -27.68345063	     -3.93570733	    -10.93365772
      1.34500000	     10.51085310	      1.37879614	      2.21437182	      0.09411486	      0.91434359	     -0.04003712	     17.29206471	     -1.36095537	     -9.00105402	    -24.28229097	     17.36377162	     -4.22480516	     36.83874939	    -25.72254903	      2.62216696	     -4.10524492	     -2.84470319	     19.42569617	      8.29800140	     25.69127402	    -27.75324319	     -3.79844350	    -11.33005491
      1.35000000	     10.56975256	      1.36532222	      2.55508191	      0.10191562	      0.91363352	     -0.03983720	     16.74940448	     -1.32799077	     -9.41206487	    -21.62196671	     17.05933094	     -3.62174286	     37.25245919	    -26.27291620	      2.36527124	     -4.31844839	     -2.90518131	     19.49385827	      9.05697522	     25.99787085	    -27.81325953	     -3.66405650	    -11.75591464
      1.35500000	     10.65089147	      1.33111289	      2.86439725	      0.10985464	      0.91290214	     -0.03955152	     16.14274016	     -1.24806473	     -9.78119822	    -18.97274668	     16.66824021	     -3.01865953	     37.81708589	    -26.86736844	      2.09026849	     -4.56039624	     -2.93801538	     19.53498205	      9.83767088	     26.40186377	    -27.87968032	     -3.52312407	    -12.10815044
      1.36000000	     10.73445175	      1.32212639	      3.20080658	      0.11785562	      0.91215842	     -0.03920412	     15.49504905	     -1.17944637	    -10.14017600	    -16.35739937	     16.22797240	     -2.51846254	     38.35369436	    -27.41344175	      1.81438629	     -4.80703247	     -3.07669756	     19.56389154	     10.58104247	     26.82012993	    -27.94713925	     -3.40667464	    -12.52403067
      1.36500000	     10.77404333	      1.30198374	      3.51158421	      0.12598652	      0.91130151	     -0.03873193	     14.87045607	     -1.06893810	    -10.38401018	    -13.79549641	     15.57881705	     -2.30845926	     40.06759382	    -27.91847645	      1.52595999	     -5.06821938	     -3.20494247	     19.50618706	     11.31124058	     28.02192684	    -27.95075443	     -3.30115595	    -12.90515080
      1.37000000	     10.87896880	      1.29623126	      3.82726593	      0.13416744	      0.91050210	     -0.03822398	     14.15369991	     -0.95951120	    -10.57374685	    -11.34317454	     15.05027976	     -2.02280362	     40.16472595	    -28.47058579	      1.23681468	     -5.27186637	     -3.39465345	     19.54313403	     11.97122948	     28.24293072	    -28.02368853	     -3.20636464	    -13.27847847
      1.37500000	     10.97011603	      1.26509342	      4.08906444	      0.14249113	      0.90963365	     -0.03756553	     13.44985498	     -0.79510459	    -10.60852504	     -9.02428403	     14.42662941	     -1.94033081	     40.42448598	    -29.01706029	      0.93252437	     -5.56258573	     -3.57818878	     19.54095902	     12.74186955	     28.65861633	    -28.06095979	     -3.11872424	    -13.55736988
